<svg id="svg" version="1.1" xmlns="http://www.w3.org/2000/svg" xmlns:xlink="http://www.w3.org/1999/xlink" width="400" height="400" viewBox="0, 0, 400,400"><g id="svgg"><path id="path0" d="M189.602 48.732 L 147.759 48.832 146.749 49.841 C 145.052 51.539,141.677 58.527,141.637 60.428 C 141.578 63.212,142.535 63.814,147.407 64.057 C 152.622 64.316,152.912 64.534,152.602 67.960 C 151.667 78.272,142.897 97.836,136.919 102.943 C 133.364 105.980,133.658 107.564,137.761 107.479 C 147.694 107.272,160.607 90.524,166.005 70.846 C 167.691 64.700,168.402 64.063,173.561 64.063 C 178.510 64.063,179.488 65.149,180.859 72.168 C 181.267 74.263,181.770 76.534,181.976 77.215 C 182.181 77.897,182.559 80.445,182.814 82.879 C 183.069 85.313,183.531 88.878,183.840 90.801 C 184.149 92.724,184.657 97.031,184.968 100.372 C 185.279 103.712,185.800 108.027,186.126 109.961 C 186.451 111.895,187.245 116.920,187.889 121.129 C 189.408 131.060,189.982 132.553,191.981 131.786 C 194.882 130.673,195.226 125.289,195.292 79.980 C 195.317 62.204,194.324 64.060,203.809 64.068 C 211.421 64.075,212.124 64.237,213.521 66.311 C 215.008 68.517,216.395 75.596,217.021 84.180 C 217.335 88.477,217.763 93.398,217.973 95.117 C 218.390 98.536,218.809 103.029,219.740 114.063 C 220.075 118.037,220.509 122.256,220.705 123.438 C 220.902 124.619,221.435 130.244,221.892 135.938 C 222.763 146.806,222.937 148.807,224.220 162.695 C 224.657 167.422,225.196 173.311,225.418 175.781 C 225.640 178.252,226.081 182.910,226.398 186.133 C 226.715 189.355,227.140 194.014,227.343 196.484 C 229.035 217.117,229.441 218.750,232.881 218.750 C 236.312 218.750,236.456 218.061,235.953 204.102 C 235.729 197.871,235.373 186.885,235.162 179.688 C 234.951 172.490,234.603 164.668,234.389 162.305 C 234.174 159.941,233.720 148.340,233.379 136.523 C 233.038 124.707,232.607 111.436,232.421 107.031 C 232.236 102.627,231.970 92.607,231.831 84.766 L 231.578 70.508 232.993 64.063 C 233.772 60.518,234.752 56.376,235.173 54.858 C 237.098 47.911,242.279 48.607,189.602 48.732 M70.569 189.505 C 68.978 190.430,68.748 192.049,68.789 202.038 C 68.847 216.110,67.638 214.941,82.124 214.935 C 96.597 214.929,95.398 216.167,95.233 201.402 L 95.117 190.947 94.021 190.005 L 92.925 189.063 82.107 189.074 C 75.142 189.082,71.033 189.235,70.569 189.505 M297.860 189.995 C 296.532 191.323,296.425 192.411,296.559 203.214 L 296.680 212.874 297.730 213.923 L 298.779 214.973 309.058 214.938 C 314.711 214.918,319.657 214.889,320.050 214.873 C 320.442 214.857,321.277 214.330,321.905 213.702 L 323.047 212.560 323.047 202.348 C 323.047 187.942,324.198 189.083,309.650 189.071 L 298.793 189.063 297.860 189.995 M169.820 245.545 C 169.692 245.673,166.987 245.760,163.809 245.738 C 153.904 245.672,154.297 245.116,154.297 259.190 L 154.297 269.591 155.439 270.733 C 156.144 271.438,157.003 271.882,157.685 271.894 C 168.267 272.076,178.026 271.774,178.841 271.240 C 180.537 270.128,180.749 268.783,180.606 260.036 C 180.459 251.108,180.345 250.621,178.191 249.735 C 177.403 249.411,176.318 248.741,175.781 248.246 C 173.305 245.962,170.619 244.745,169.820 245.545 M99.414 246.157 C 97.303 247.317,97.284 247.433,97.274 258.865 L 97.266 269.488 98.208 270.584 L 99.150 271.680 109.438 271.875 C 124.746 272.166,123.828 272.984,123.828 259.047 C 123.828 244.815,124.724 245.702,110.352 245.716 C 103.719 245.723,99.924 245.876,99.414 246.157 M218.164 246.783 C 215.413 248.319,212.861 250.129,211.723 251.353 L 210.750 252.398 210.884 260.867 C 211.073 272.851,209.991 271.958,224.253 271.894 C 238.706 271.829,237.584 272.980,237.420 258.391 L 237.305 248.063 236.223 246.981 L 235.140 245.898 227.629 245.795 L 220.117 245.692 218.164 246.783 M270.073 246.077 C 267.690 247.066,267.578 247.633,267.578 258.666 C 267.578 272.962,266.448 271.830,280.770 271.894 C 295.287 271.959,294.230 273.042,294.062 258.280 L 293.945 248.063 292.863 246.981 L 291.780 245.898 281.339 245.816 C 275.597 245.771,270.527 245.888,270.073 246.077 M71.089 303.548 C 69.075 304.290,68.955 304.907,68.818 315.278 C 68.618 330.388,67.618 329.378,82.622 329.217 C 96.560 329.067,95.082 330.509,95.233 316.912 C 95.360 305.588,95.228 304.677,93.324 303.693 C 92.047 303.032,72.829 302.907,71.089 303.548 M128.125 303.624 C 126.037 304.668,125.782 305.994,125.784 315.820 C 125.786 325.971,126.021 327.416,127.856 328.534 C 129.570 329.580,262.055 329.749,264.068 328.708 C 265.868 327.777,266.094 326.153,265.931 315.278 C 265.777 304.956,265.713 304.564,264.035 303.696 C 262.507 302.907,129.702 302.836,128.125 303.624 M298.381 303.708 C 296.690 304.642,296.484 306.006,296.484 316.282 C 296.484 330.330,295.472 329.383,310.315 329.218 L 320.768 329.102 321.908 327.826 L 323.047 326.550 323.047 316.211 L 323.047 305.872 321.908 304.596 L 320.768 303.320 310.091 303.229 C 301.332 303.154,299.229 303.240,298.381 303.708 " stroke="none" fill="#efedf3" fill-rule="evenodd"></path><path id="path1" d="M110.396 31.606 C 109.621 32.221,108.371 32.841,107.618 32.982 C 106.840 33.128,106.250 33.471,106.250 33.777 C 106.250 34.073,105.702 34.724,105.032 35.224 C 102.745 36.931,100.717 39.034,100.968 39.439 C 101.105 39.662,101.037 39.844,100.817 39.844 C 100.596 39.844,100.527 40.136,100.665 40.494 C 100.802 40.851,100.752 41.045,100.555 40.925 C 100.033 40.607,100.042 39.816,99.918 95.229 C 99.836 132.031,99.684 146.199,99.370 146.401 C 98.394 147.027,98.474 149.358,99.525 150.908 L 100.537 152.402 100.615 167.900 C 100.702 185.246,100.816 187.028,101.962 188.881 C 102.405 189.598,102.933 191.200,103.135 192.442 C 103.681 195.796,109.002 201.094,115.643 204.893 C 121.215 208.081,123.985 210.398,124.629 212.408 C 125.542 215.260,127.708 216.797,130.815 216.797 C 133.490 216.797,134.202 217.139,137.216 219.870 C 138.659 221.178,140.587 222.627,141.502 223.090 C 142.416 223.554,143.955 224.580,144.922 225.370 C 145.889 226.161,147.471 227.267,148.438 227.828 C 149.404 228.389,151.353 229.882,152.767 231.147 C 154.181 232.411,155.939 233.685,156.673 233.979 C 157.407 234.273,159.298 235.630,160.874 236.995 C 162.451 238.360,164.745 239.984,165.972 240.603 C 167.297 241.272,168.385 242.128,168.650 242.710 C 168.896 243.250,169.942 244.172,170.974 244.760 C 172.007 245.347,173.669 246.499,174.669 247.319 C 175.668 248.139,176.986 249.034,177.598 249.307 C 178.210 249.581,179.667 250.376,180.836 251.074 C 182.005 251.772,183.270 252.344,183.646 252.344 C 184.022 252.344,185.351 253.240,186.598 254.335 C 192.901 259.868,197.315 260.997,200.196 257.811 C 200.625 257.336,201.626 256.617,202.419 256.212 C 203.212 255.807,204.511 255.035,205.305 254.496 C 206.100 253.957,207.245 253.516,207.850 253.516 C 208.643 253.516,209.858 252.752,212.190 250.790 C 213.972 249.291,216.160 247.716,217.053 247.290 C 217.945 246.864,219.791 245.405,221.154 244.048 C 223.595 241.618,227.257 238.924,231.527 236.419 C 232.723 235.717,234.298 234.619,235.026 233.980 C 235.754 233.340,237.066 232.452,237.940 232.006 C 238.815 231.560,240.278 230.506,241.191 229.665 C 242.103 228.823,243.525 227.853,244.350 227.508 C 245.175 227.163,247.267 225.572,248.999 223.971 C 253.204 220.084,258.390 216.797,260.316 216.797 C 262.432 216.797,263.445 216.104,267.839 211.646 C 270.023 209.430,272.835 207.012,274.089 206.273 C 278.999 203.376,285.765 197.351,289.029 192.969 L 291.211 190.039 291.518 170.898 C 292.015 139.867,292.220 44.150,291.791 43.347 C 291.525 42.851,291.557 42.583,291.898 42.444 C 292.270 42.293,292.258 42.160,291.844 41.870 C 291.532 41.652,291.435 41.286,291.612 40.999 C 291.799 40.695,291.760 40.602,291.509 40.757 C 291.018 41.060,289.723 39.209,289.966 38.550 C 290.197 37.923,284.777 32.813,283.880 32.813 C 283.488 32.813,282.692 32.329,282.111 31.738 L 281.055 30.664 196.429 30.575 L 111.804 30.486 110.396 31.606 M235.254 49.527 C 236.134 50.292,236.116 51.455,235.173 54.858 C 234.752 56.376,233.772 60.518,232.993 64.063 L 231.578 70.508 231.831 84.766 C 231.970 92.607,232.236 102.627,232.421 107.031 C 232.607 111.436,233.038 124.707,233.379 136.523 C 233.720 148.340,234.174 159.941,234.389 162.305 C 234.603 164.668,234.951 172.490,235.162 179.688 C 235.373 186.885,235.729 197.871,235.953 204.102 C 236.456 218.061,236.312 218.750,232.881 218.750 C 229.441 218.750,229.035 217.117,227.343 196.484 C 227.140 194.014,226.715 189.355,226.398 186.133 C 226.081 182.910,225.640 178.252,225.418 175.781 C 225.196 173.311,224.657 167.422,224.220 162.695 C 222.937 148.807,222.763 146.806,221.892 135.938 C 221.435 130.244,220.902 124.619,220.705 123.438 C 220.509 122.256,220.075 118.037,219.740 114.063 C 218.809 103.029,218.390 98.536,217.973 95.117 C 217.763 93.398,217.335 88.477,217.021 84.180 C 216.395 75.596,215.008 68.517,213.521 66.311 C 212.124 64.237,211.421 64.075,203.809 64.068 C 194.324 64.060,195.317 62.204,195.292 79.980 C 195.226 125.289,194.882 130.673,191.981 131.786 C 189.982 132.553,189.408 131.060,187.889 121.129 C 187.245 116.920,186.451 111.895,186.126 109.961 C 185.800 108.027,185.279 103.712,184.968 100.372 C 184.657 97.031,184.149 92.724,183.840 90.801 C 183.531 88.878,183.069 85.313,182.814 82.879 C 182.559 80.445,182.181 77.897,181.976 77.215 C 181.770 76.534,181.267 74.263,180.859 72.168 C 179.488 65.149,178.510 64.063,173.561 64.063 C 168.402 64.063,167.691 64.700,166.005 70.846 C 160.607 90.524,147.694 107.272,137.761 107.479 C 133.658 107.564,133.364 105.980,136.919 102.943 C 142.897 97.836,151.667 78.272,152.602 67.960 C 152.912 64.534,152.622 64.316,147.407 64.057 C 142.535 63.814,141.578 63.212,141.637 60.428 C 141.677 58.527,145.052 51.539,146.749 49.841 L 147.759 48.832 189.602 48.732 C 234.326 48.626,234.216 48.624,235.254 49.527 " stroke="none" fill="#732dfb" fill-rule="evenodd"></path><path id="path2" d="M294.531 40.820 C 294.531 41.572,294.707 42.188,294.922 42.188 C 295.137 42.188,295.313 41.572,295.313 40.820 C 295.313 40.068,295.137 39.453,294.922 39.453 C 294.707 39.453,294.531 40.068,294.531 40.820 M95.313 44.531 C 95.313 45.833,95.139 46.875,94.922 46.875 C 94.664 46.875,94.531 63.346,94.531 95.508 L 94.531 144.141 69.336 144.141 C 45.601 144.141,44.141 144.180,44.141 144.824 C 44.141 145.468,45.605 145.508,69.434 145.508 C 83.345 145.508,95.034 145.658,95.410 145.843 C 96.059 146.161,96.094 143.568,96.094 94.182 C 96.094 59.780,95.962 42.188,95.703 42.188 C 95.486 42.188,95.313 43.229,95.313 44.531 M296.777 95.020 C 296.831 122.788,296.875 145.640,296.875 145.801 C 296.875 145.962,297.139 146.094,297.461 146.094 C 297.783 146.094,298.047 145.918,298.047 145.703 C 298.047 145.447,306.315 145.313,322.070 145.313 C 343.109 145.313,346.094 145.240,346.094 144.730 C 346.094 144.220,343.053 144.134,321.973 144.046 L 297.852 143.945 297.752 94.238 C 297.674 54.867,297.552 44.531,297.166 44.531 C 296.780 44.531,296.700 54.920,296.777 95.020 M293.008 96.582 C 293.029 123.706,293.187 146.338,293.359 146.875 C 293.531 147.412,293.690 125.220,293.711 97.559 C 293.737 64.264,293.618 47.266,293.359 47.266 C 293.101 47.266,292.982 63.939,293.008 96.582 M36.719 147.266 C 36.719 147.485,37.789 147.654,39.160 147.650 C 40.881 147.646,41.429 147.532,41.016 147.266 C 40.242 146.765,36.719 146.765,36.719 147.266 M351.367 147.266 C 351.220 147.504,351.808 147.656,352.875 147.656 C 353.837 147.656,354.902 147.763,355.241 147.893 C 355.647 148.049,355.859 147.915,355.859 147.503 C 355.859 146.779,351.801 146.564,351.367 147.266 M293.219 151.240 C 293.081 152.555,292.969 161.837,292.969 171.867 L 292.969 190.104 289.941 194.170 C 286.765 198.435,278.680 205.755,275.215 207.502 C 272.740 208.750,269.857 211.275,267.826 213.975 C 265.546 217.006,264.068 217.965,261.676 217.967 C 260.403 217.968,259.455 218.254,258.442 218.941 C 257.654 219.476,256.443 220.203,255.751 220.557 C 255.059 220.911,252.797 222.665,250.725 224.453 C 248.653 226.242,246.016 228.260,244.865 228.938 C 243.715 229.615,242.114 230.764,241.307 231.491 C 240.501 232.218,239.618 232.813,239.344 232.813 C 239.070 232.813,237.621 233.796,236.122 234.998 C 234.624 236.199,233.012 237.334,232.539 237.520 C 232.066 237.705,230.325 238.858,228.671 240.082 C 224.847 242.909,225.147 243.319,230.988 243.245 C 235.722 243.186,237.402 243.810,239.000 246.223 L 240.039 247.792 240.165 257.830 C 240.377 274.674,240.444 274.605,224.219 274.605 C 208.732 274.605,208.210 274.189,208.205 261.858 C 208.204 257.070,208.082 255.506,207.699 255.359 C 207.059 255.113,203.264 257.338,200.544 259.554 C 197.919 261.692,195.939 262.128,193.838 261.031 C 189.570 258.801,187.784 257.616,186.594 256.226 C 183.676 252.818,183.128 253.937,183.281 262.994 L 183.395 269.789 182.324 271.407 C 180.392 274.327,180.072 274.398,168.292 274.535 C 151.074 274.734,150.987 274.648,151.234 257.417 L 151.367 248.113 152.544 246.438 C 154.432 243.754,155.780 243.182,160.350 243.129 C 162.499 243.104,164.478 243.058,164.746 243.026 C 165.505 242.937,165.321 241.877,164.501 241.617 C 164.098 241.489,162.472 240.228,160.888 238.815 C 159.304 237.401,157.217 235.886,156.250 235.448 C 155.283 235.009,153.613 233.860,152.539 232.894 C 151.465 231.928,149.157 230.214,147.411 229.085 C 145.664 227.956,144.114 226.835,143.965 226.594 C 143.816 226.354,142.864 225.736,141.849 225.222 C 140.834 224.708,139.133 223.517,138.068 222.577 C 133.504 218.546,132.880 218.193,130.027 218.032 C 126.927 217.857,124.765 216.389,123.704 213.736 C 122.935 211.814,120.469 209.641,116.334 207.240 C 114.547 206.203,112.574 205.046,111.949 204.668 C 110.370 203.715,103.189 196.577,102.571 195.346 C 102.293 194.790,101.956 193.765,101.823 193.066 C 101.691 192.368,101.202 190.962,100.737 189.942 C 100.272 188.922,99.750 186.856,99.576 185.352 C 99.403 183.848,99.079 181.387,98.857 179.883 C 98.317 176.228,98.326 160.752,98.871 156.836 C 99.316 153.638,98.439 150.597,96.764 149.533 C 94.277 147.952,39.150 149.556,37.200 151.266 C 36.828 151.592,35.996 152.134,35.352 152.470 C 33.693 153.334,28.769 158.138,27.192 160.430 C 24.693 164.063,24.827 158.775,24.711 258.520 C 24.595 358.754,24.515 355.235,26.955 357.507 C 27.384 357.907,27.734 358.401,27.734 358.606 C 27.734 360.451,36.641 367.050,40.234 367.868 C 41.631 368.186,43.828 368.686,45.117 368.980 C 47.771 369.586,342.141 369.763,345.898 369.162 C 348.977 368.669,353.211 367.549,354.492 366.888 C 355.137 366.556,356.279 365.975,357.031 365.598 C 359.406 364.406,363.857 359.744,364.675 357.591 C 365.078 356.531,365.764 355.372,366.200 355.015 C 366.992 354.366,366.992 354.348,366.992 258.988 L 366.992 163.609 365.946 162.847 C 365.371 162.428,364.782 161.544,364.636 160.882 C 364.340 159.531,363.503 158.408,360.938 155.916 C 358.541 153.587,358.211 153.328,356.641 152.543 C 355.889 152.167,354.967 151.590,354.592 151.262 C 352.620 149.533,347.019 149.208,319.839 149.247 C 305.721 149.266,294.012 149.185,293.819 149.066 C 293.626 148.947,293.356 149.925,293.219 151.240 M356.864 149.565 C 356.746 149.755,357.087 149.994,357.622 150.096 C 358.272 150.221,358.594 150.106,358.594 149.751 C 358.594 149.164,357.203 149.015,356.864 149.565 M26.953 155.273 C 26.953 156.688,27.473 157.105,27.888 156.023 C 28.309 154.926,28.141 153.906,27.539 153.906 C 27.130 153.906,26.953 154.319,26.953 155.273 M25.099 160.352 C 25.103 161.211,25.183 161.517,25.276 161.031 C 25.370 160.545,25.366 159.842,25.268 159.468 C 25.171 159.095,25.094 159.492,25.099 160.352 M367.578 160.352 C 367.578 161.104,367.754 161.719,367.969 161.719 C 368.184 161.719,368.359 161.104,368.359 160.352 C 368.359 159.600,368.184 158.984,367.969 158.984 C 367.754 158.984,367.578 159.600,367.578 160.352 M22.288 162.402 C 22.350 165.336,22.956 166.663,23.002 163.965 C 23.028 162.438,22.883 161.328,22.656 161.328 C 22.441 161.328,22.276 161.812,22.288 162.402 M92.773 186.375 C 97.569 187.703,98.047 189.133,98.047 202.160 C 98.047 213.993,97.896 214.679,94.846 216.699 L 93.223 217.773 82.756 217.894 C 66.180 218.086,65.864 217.765,66.087 200.959 C 66.283 186.169,66.480 185.981,81.836 185.957 C 87.542 185.948,91.822 186.111,92.773 186.375 M320.398 186.345 C 324.932 187.604,325.391 189.036,325.391 201.915 C 325.391 218.067,325.503 217.948,310.156 217.958 C 293.761 217.969,293.750 217.958,293.750 201.930 C 293.750 186.161,293.880 186.030,309.570 185.975 C 314.933 185.956,319.567 186.115,320.398 186.345 M120.648 243.332 C 125.570 244.283,126.172 245.988,126.172 258.984 C 126.172 274.997,126.770 274.414,110.352 274.414 C 93.791 274.414,94.727 275.342,94.727 258.915 C 94.727 242.600,94.241 243.094,110.352 243.035 C 115.078 243.017,119.711 243.151,120.648 243.332 M291.060 243.363 C 296.383 244.361,296.861 245.622,296.869 258.704 C 296.879 275.064,297.217 274.756,279.422 274.539 C 264.624 274.358,265.234 275.024,265.234 259.083 C 265.234 242.697,264.860 243.091,280.513 243.012 C 285.157 242.988,289.903 243.146,291.060 243.363 M93.867 301.024 C 97.833 303.032,98.047 303.807,98.047 316.170 C 98.047 332.297,98.313 332.035,81.946 332.025 C 66.091 332.015,66.280 332.194,66.088 317.070 C 65.935 304.934,66.644 302.438,70.703 300.828 C 72.498 300.116,92.407 300.284,93.867 301.024 M264.874 301.298 C 266.158 301.977,266.863 302.727,267.670 304.272 L 268.750 306.339 268.750 316.268 C 268.750 328.318,268.462 329.403,264.762 331.292 C 263.356 332.009,261.277 332.031,195.797 332.031 L 128.281 332.031 126.630 330.960 C 123.598 328.995,123.438 328.254,123.438 316.270 C 123.438 303.791,124.008 301.936,128.220 300.723 C 128.705 300.583,159.264 300.451,196.130 300.430 L 263.158 300.391 264.874 301.298 M322.564 301.693 C 325.382 303.648,325.440 303.962,325.310 316.766 C 325.147 332.808,325.909 332.086,309.313 331.937 L 298.118 331.836 296.618 330.629 C 293.868 328.418,293.790 328.029,293.769 316.491 C 293.739 300.125,293.523 300.336,310.191 300.488 L 320.967 300.586 322.564 301.693 M22.266 355.273 C 22.266 356.025,22.441 356.641,22.656 356.641 C 22.871 356.641,23.047 356.025,23.047 355.273 C 23.047 354.521,22.871 353.906,22.656 353.906 C 22.441 353.906,22.266 354.521,22.266 355.273 M24.883 357.965 C 24.485 360.740,24.540 361.328,25.195 361.328 C 25.845 361.328,25.922 360.184,25.447 357.617 L 25.157 356.055 24.883 357.965 M367.578 357.617 C 367.578 358.369,367.754 358.984,367.969 358.984 C 368.184 358.984,368.359 358.369,368.359 357.617 C 368.359 356.865,368.184 356.250,367.969 356.250 C 367.754 356.250,367.578 356.865,367.578 357.617 M365.068 359.881 C 364.893 360.482,364.859 361.083,364.992 361.216 C 365.429 361.653,365.687 361.029,365.535 359.899 L 365.386 358.789 365.068 359.881 M26.966 362.402 C 26.956 363.623,27.108 364.063,27.539 364.063 C 28.299 364.063,28.306 362.498,27.551 361.500 C 27.018 360.795,26.977 360.858,26.966 362.402 M29.688 365.637 C 29.688 366.060,29.951 366.406,30.273 366.406 C 30.596 366.406,30.859 366.161,30.859 365.862 C 30.859 365.563,30.596 365.217,30.273 365.093 C 29.875 364.940,29.688 365.114,29.688 365.637 M360.547 365.820 C 360.547 366.143,360.723 366.406,360.938 366.406 C 361.152 366.406,361.328 366.143,361.328 365.820 C 361.328 365.498,361.152 365.234,360.938 365.234 C 360.723 365.234,360.547 365.498,360.547 365.820 M32.031 368.005 C 32.031 368.569,32.310 368.750,33.180 368.750 C 34.843 368.750,34.955 368.158,33.384 367.676 C 32.169 367.303,32.031 367.336,32.031 368.005 M356.250 367.933 C 356.250 368.582,357.281 369.104,358.126 368.883 C 359.482 368.529,359.144 367.711,357.617 367.653 C 356.865 367.625,356.250 367.751,356.250 367.933 M353.320 370.313 C 351.758 370.443,351.215 370.606,351.692 370.801 C 352.756 371.237,355.385 371.155,355.680 370.677 C 356.035 370.102,355.967 370.092,353.320 370.313 M36.719 370.703 C 36.719 371.173,38.945 371.173,40.039 370.703 C 40.613 370.457,40.276 370.360,38.770 370.340 C 37.642 370.325,36.719 370.488,36.719 370.703 M350.598 372.380 C 350.431 372.765,350.404 373.190,350.538 373.324 C 350.934 373.721,351.254 373.164,351.072 372.394 C 350.910 371.711,350.889 371.711,350.598 372.380 M44.141 372.852 C 44.141 373.216,44.510 373.438,45.117 373.438 C 45.725 373.438,46.094 373.216,46.094 372.852 C 46.094 372.487,45.725 372.266,45.117 372.266 C 44.510 372.266,44.141 372.487,44.141 372.852 " stroke="none" fill="#040404" fill-rule="evenodd"></path><path id="path3" d="M70.438 188.521 C 68.137 189.655,67.969 190.569,67.969 201.927 C 67.969 217.032,67.049 216.108,82.084 216.108 C 97.179 216.108,96.483 216.788,96.484 202.038 C 96.485 187.118,97.264 187.890,82.227 187.901 C 73.448 187.907,71.471 188.011,70.438 188.521 M297.813 188.632 C 295.573 189.997,295.312 191.419,295.313 202.254 C 295.314 216.782,294.669 216.165,309.821 216.141 L 320.304 216.125 321.850 215.102 C 324.032 213.658,324.214 212.633,324.217 201.783 C 324.220 187.324,324.819 187.890,309.511 187.892 C 299.917 187.893,298.920 187.956,297.813 188.632 M94.021 190.005 L 95.117 190.947 95.233 201.402 C 95.398 216.167,96.597 214.929,82.124 214.935 C 67.638 214.941,68.847 216.110,68.789 202.038 C 68.731 188.034,67.647 189.090,82.107 189.074 L 92.925 189.063 94.021 190.005 M321.341 189.755 C 322.954 191.061,323.047 191.749,323.047 202.348 L 323.047 212.560 321.905 213.702 C 321.277 214.330,320.442 214.857,320.050 214.873 C 319.657 214.889,314.711 214.918,309.058 214.938 L 298.779 214.973 297.730 213.923 L 296.680 212.874 296.559 203.214 C 296.425 192.411,296.532 191.323,297.860 189.995 L 298.793 189.063 309.650 189.071 C 319.348 189.079,320.597 189.152,321.341 189.755 M168.203 244.074 C 167.656 244.620,166.674 244.727,162.193 244.730 C 156.549 244.733,155.984 244.873,154.297 246.675 L 153.320 247.718 153.205 258.204 C 153.032 273.869,152.250 273.043,167.260 273.045 C 178.616 273.047,179.111 272.969,180.664 270.934 L 181.716 269.553 181.776 261.594 C 181.822 255.436,181.959 253.487,182.380 252.980 C 182.679 252.620,182.855 252.273,182.771 252.210 C 181.284 251.092,179.706 250.477,180.070 251.157 C 180.699 252.332,180.849 267.889,180.246 269.403 C 179.277 271.837,175.928 272.207,157.685 271.894 C 157.003 271.882,156.144 271.438,155.439 270.733 L 154.297 269.591 154.297 259.190 C 154.297 245.143,153.918 245.687,163.683 245.716 C 166.792 245.726,169.811 245.595,170.392 245.425 L 171.447 245.117 170.151 244.269 C 168.941 243.477,168.813 243.464,168.203 244.074 M220.297 244.991 C 219.339 245.839,218.958 246.336,219.452 246.095 C 220.048 245.803,222.833 245.697,227.745 245.777 L 235.140 245.898 236.223 246.981 L 237.305 248.063 237.420 258.391 C 237.584 272.980,238.706 271.829,224.253 271.894 C 212.997 271.944,212.358 271.851,211.382 270.020 C 210.890 269.096,210.659 252.701,211.127 251.953 C 211.329 251.631,210.939 251.807,210.260 252.344 C 209.446 252.988,209.115 253.520,209.289 253.906 C 209.433 254.229,209.643 257.920,209.756 262.109 C 210.065 273.579,209.350 273.043,224.332 273.045 L 235.187 273.047 236.832 271.513 L 238.477 269.979 238.583 259.501 C 238.732 244.857,238.653 244.727,229.544 244.727 C 225.061 244.727,223.802 244.603,223.015 244.088 C 222.066 243.466,221.992 243.491,220.297 244.991 M99.747 244.946 C 99.070 245.149,97.972 245.935,97.305 246.694 L 96.094 248.074 96.095 258.705 C 96.097 273.924,95.218 273.047,110.470 273.047 C 125.454 273.047,124.595 273.909,124.604 258.867 C 124.612 243.887,125.452 244.761,110.938 244.652 C 105.459 244.611,100.423 244.743,99.747 244.946 M270.394 244.904 C 266.795 245.790,266.406 247.144,266.406 258.789 C 266.406 269.366,266.545 270.155,268.727 271.991 L 269.982 273.047 280.731 273.047 C 296.024 273.047,295.313 273.735,295.312 258.931 C 295.311 244.121,295.916 244.756,281.711 244.657 C 276.194 244.619,271.101 244.730,270.394 244.904 M121.787 246.486 C 123.702 247.654,123.828 248.429,123.828 259.047 C 123.828 272.984,124.746 272.166,109.438 271.875 L 99.150 271.680 98.208 270.584 L 97.266 269.488 97.274 258.865 C 97.286 244.608,96.169 245.731,110.352 245.716 C 119.825 245.707,120.594 245.758,121.787 246.486 M292.863 246.981 L 293.945 248.063 294.062 258.280 C 294.230 273.042,295.287 271.959,280.770 271.894 C 266.448 271.830,267.578 272.962,267.578 258.666 C 267.578 244.711,266.519 245.700,281.339 245.816 L 291.780 245.898 292.863 246.981 M71.107 302.451 C 68.134 303.502,67.969 304.226,67.970 316.171 C 67.972 331.368,67.147 330.575,82.757 330.394 C 97.238 330.226,96.485 331.011,96.484 316.105 C 96.483 301.564,97.093 302.184,82.687 302.061 C 75.416 301.998,72.070 302.111,71.107 302.451 M127.858 302.710 C 125.081 303.975,125.000 304.361,125.001 316.289 C 125.003 328.040,125.103 328.515,127.845 329.816 C 130.018 330.848,262.003 330.817,264.049 329.785 C 266.737 328.429,266.866 327.815,266.884 316.292 C 266.902 305.053,266.769 304.283,264.560 302.836 C 262.853 301.717,130.305 301.595,127.858 302.710 M298.465 302.625 C 295.528 304.150,295.508 304.244,295.508 316.211 C 295.508 331.180,294.795 330.468,309.766 330.468 C 324.651 330.468,323.979 331.113,324.130 316.671 C 324.289 301.478,324.969 302.194,310.226 302.039 C 300.862 301.940,299.669 302.000,298.465 302.625 M93.324 303.693 C 95.228 304.677,95.360 305.588,95.233 316.912 C 95.082 330.509,96.560 329.067,82.622 329.217 C 67.618 329.378,68.618 330.388,68.818 315.278 C 68.955 304.907,69.075 304.290,71.089 303.548 C 72.829 302.907,92.047 303.032,93.324 303.693 M264.035 303.696 C 265.713 304.564,265.777 304.956,265.931 315.278 C 266.094 326.153,265.868 327.777,264.068 328.708 C 262.055 329.749,129.570 329.580,127.856 328.534 C 126.021 327.416,125.786 325.971,125.784 315.820 C 125.782 305.994,126.037 304.668,128.125 303.624 C 129.702 302.836,262.507 302.907,264.035 303.696 M321.908 304.596 L 323.047 305.872 323.047 316.211 L 323.047 326.550 321.908 327.826 L 320.768 329.102 310.315 329.218 C 295.472 329.383,296.484 330.330,296.484 316.282 C 296.484 302.083,295.421 303.103,310.091 303.229 L 320.768 303.320 321.908 304.596 " stroke="none" fill="#9c95ac" fill-rule="evenodd"></path><path id="path4" d="M99.846 42.415 C 99.716 42.755,99.609 43.355,99.609 43.749 C 99.609 44.144,99.458 44.525,99.272 44.596 C 99.084 44.669,99.088 45.983,99.281 47.579 C 99.472 49.147,99.579 72.036,99.521 98.443 C 99.462 124.850,99.535 146.155,99.684 145.787 C 99.832 145.418,99.957 122.325,99.961 94.468 C 99.965 66.610,100.082 43.363,100.222 42.807 C 100.499 41.704,100.228 41.421,99.846 42.415 M292.319 54.688 C 292.319 56.299,292.388 56.958,292.472 56.152 C 292.556 55.347,292.556 54.028,292.472 53.223 C 292.388 52.417,292.319 53.076,292.319 54.688 M292.328 147.266 C 292.328 149.307,292.394 150.142,292.475 149.121 C 292.555 148.101,292.555 146.431,292.475 145.410 C 292.394 144.390,292.328 145.225,292.328 147.266 M98.438 149.805 C 98.438 149.997,98.899 150.819,99.462 151.632 L 100.487 153.111 100.048 158.502 C 99.112 169.999,99.957 185.806,101.705 189.501 C 102.271 190.698,102.734 192.211,102.734 192.864 C 102.734 195.486,109.300 201.766,116.436 205.970 C 121.416 208.904,124.037 211.176,124.412 212.883 C 124.888 215.048,127.784 217.188,130.239 217.188 C 133.134 217.188,133.886 217.539,137.227 220.453 C 138.813 221.836,140.837 223.339,141.725 223.791 C 142.612 224.244,143.914 225.113,144.618 225.722 C 145.322 226.331,146.953 227.495,148.242 228.308 C 149.531 229.120,151.647 230.712,152.944 231.845 C 154.241 232.978,155.920 234.162,156.675 234.478 C 157.430 234.793,159.255 236.123,160.731 237.433 C 162.207 238.743,164.351 240.259,165.496 240.801 C 169.710 242.796,168.083 244.140,161.451 244.141 C 152.615 244.142,152.299 244.671,152.438 259.250 C 152.581 274.309,151.865 273.581,166.705 273.755 C 182.387 273.938,182.422 273.912,182.422 262.064 C 182.422 252.142,182.910 251.463,187.237 255.371 C 192.638 260.249,196.614 261.307,199.858 258.730 C 201.464 257.455,201.749 257.256,204.728 255.325 C 208.843 252.658,209.110 253.074,209.149 262.230 C 209.199 273.838,208.930 273.633,224.150 273.633 C 239.700 273.633,239.175 274.070,239.387 260.938 C 239.573 249.431,239.389 247.977,237.492 245.941 L 235.995 244.336 230.204 244.141 C 224.349 243.943,223.438 243.758,223.438 242.764 C 223.438 242.220,228.739 238.418,231.596 236.914 C 232.412 236.484,233.943 235.410,234.997 234.527 C 236.051 233.643,237.529 232.613,238.281 232.237 C 239.033 231.861,240.176 231.054,240.820 230.444 C 241.465 229.834,242.900 228.838,244.009 228.232 C 245.119 227.625,247.694 225.672,249.731 223.892 C 254.465 219.756,258.640 217.203,260.683 217.194 C 262.988 217.184,264.733 216.125,266.901 213.420 C 269.158 210.604,272.868 207.338,275.109 206.194 C 279.189 204.113,287.534 196.108,290.778 191.164 L 291.833 189.555 291.913 170.340 C 291.956 159.772,291.878 151.531,291.738 152.027 C 291.598 152.524,291.467 161.204,291.445 171.318 L 291.406 189.705 289.130 192.802 C 285.826 197.297,279.114 203.308,274.089 206.273 C 272.835 207.012,270.023 209.430,267.839 211.646 C 263.445 216.104,262.432 216.797,260.316 216.797 C 258.390 216.797,253.204 220.084,248.999 223.971 C 247.267 225.572,245.175 227.163,244.350 227.508 C 243.525 227.853,242.103 228.823,241.191 229.665 C 240.278 230.506,238.842 231.546,238.000 231.975 C 237.158 232.405,235.701 233.398,234.762 234.183 C 233.823 234.967,232.254 236.039,231.274 236.566 C 228.195 238.220,222.473 242.374,222.343 243.050 C 222.098 244.325,223.768 244.712,229.561 244.719 C 238.651 244.731,238.732 244.864,238.583 259.501 L 238.477 269.979 236.832 271.513 L 235.187 273.047 224.332 273.045 C 209.343 273.043,209.766 273.366,209.766 261.901 C 209.766 253.078,209.078 251.936,205.305 254.496 C 204.511 255.035,203.212 255.807,202.419 256.212 C 201.626 256.617,200.625 257.336,200.196 257.811 C 197.315 260.997,192.901 259.868,186.598 254.335 C 182.305 250.567,181.854 251.246,181.776 261.594 L 181.716 269.553 180.664 270.934 C 179.111 272.969,178.616 273.047,167.260 273.045 C 152.250 273.043,153.032 273.869,153.205 258.204 L 153.320 247.718 154.297 246.675 C 155.984 244.873,156.549 244.733,162.193 244.730 C 169.593 244.725,171.048 243.165,166.021 240.628 C 164.767 239.995,162.451 238.360,160.874 236.995 C 159.298 235.630,157.407 234.273,156.673 233.979 C 155.939 233.685,154.181 232.411,152.767 231.147 C 151.353 229.882,149.404 228.389,148.438 227.828 C 147.471 227.267,145.889 226.161,144.922 225.370 C 143.955 224.580,142.416 223.554,141.502 223.090 C 140.587 222.627,138.659 221.178,137.216 219.870 C 134.202 217.139,133.490 216.797,130.815 216.797 C 127.708 216.797,125.542 215.260,124.629 212.408 C 123.985 210.398,121.215 208.081,115.643 204.893 C 109.002 201.094,103.681 195.796,103.135 192.442 C 102.933 191.200,102.405 189.598,101.962 188.881 C 100.823 187.038,100.705 185.272,100.579 168.164 C 100.518 159.785,100.450 152.744,100.429 152.517 C 100.380 151.988,98.438 149.343,98.438 149.805 M70.397 187.877 C 67.433 189.238,67.206 190.238,67.196 201.968 C 67.183 217.298,66.674 216.797,82.260 216.797 C 97.598 216.797,97.020 217.346,97.184 202.609 C 97.359 186.876,97.801 187.346,82.687 187.206 C 72.834 187.115,71.950 187.163,70.397 187.877 M298.209 187.655 C 294.908 189.118,294.453 191.072,294.604 203.132 C 294.783 217.289,294.237 216.797,309.765 216.797 L 320.586 216.797 322.222 215.612 C 324.547 213.927,324.609 213.575,324.609 202.110 C 324.609 186.545,325.383 187.343,310.156 187.213 C 301.763 187.142,299.151 187.238,298.209 187.655 M94.066 188.682 C 96.307 190.048,96.484 191.026,96.484 202.038 C 96.483 216.788,97.179 216.108,82.084 216.108 C 67.049 216.108,67.969 217.032,67.969 201.927 C 67.969 186.996,67.038 187.912,82.227 187.901 C 92.125 187.894,92.853 187.942,94.066 188.682 M321.310 188.513 C 323.914 189.749,324.219 191.140,324.217 201.783 C 324.214 212.633,324.032 213.658,321.850 215.102 L 320.304 216.125 309.821 216.141 C 294.669 216.165,295.314 216.782,295.313 202.254 C 295.312 187.198,294.624 187.894,309.511 187.892 C 318.299 187.891,320.212 187.992,321.310 188.513 M98.047 245.020 C 95.433 246.804,95.313 247.419,95.313 259.018 C 95.313 274.170,94.734 273.583,109.828 273.749 C 125.872 273.925,125.195 274.584,125.195 258.772 C 125.195 243.236,126.119 244.144,110.312 244.142 C 99.568 244.141,99.307 244.159,98.047 245.020 M269.336 244.507 C 268.906 244.690,268.027 245.398,267.383 246.078 L 266.211 247.316 266.105 258.521 C 265.954 274.604,265.002 273.633,280.911 273.633 C 296.669 273.633,295.898 274.396,295.898 258.789 C 295.898 243.487,296.787 244.368,281.250 244.254 C 275.127 244.209,269.766 244.323,269.336 244.507 M122.161 245.417 C 124.506 246.698,124.610 247.271,124.604 258.867 C 124.595 273.909,125.454 273.047,110.470 273.047 C 95.218 273.047,96.097 273.924,96.095 258.705 L 96.094 248.074 97.305 246.694 C 99.056 244.700,99.926 244.570,110.938 244.652 C 119.633 244.717,121.059 244.814,122.161 245.417 M292.843 245.536 C 295.165 247.240,295.311 248.035,295.312 258.931 C 295.313 273.735,296.024 273.047,280.731 273.047 L 269.982 273.047 268.727 271.991 C 266.545 270.155,266.406 269.366,266.406 258.789 C 266.406 243.991,265.804 244.547,281.711 244.657 C 291.182 244.723,291.803 244.772,292.843 245.536 M71.361 301.726 C 67.433 303.159,67.188 304.013,67.188 316.270 C 67.188 331.578,66.630 331.004,81.641 331.168 C 97.468 331.342,97.266 331.535,97.266 316.211 C 97.266 301.092,97.575 301.412,82.813 301.274 C 75.088 301.202,72.517 301.304,71.361 301.726 M128.381 301.739 C 124.421 303.157,124.136 304.226,124.291 317.062 C 124.431 328.681,124.430 328.679,127.751 330.375 L 129.480 331.259 196.478 331.157 C 271.740 331.042,265.164 331.325,266.793 328.133 C 267.522 326.704,267.578 325.840,267.578 316.089 C 267.578 304.283,267.507 303.964,264.452 302.170 C 262.679 301.128,131.247 300.713,128.381 301.739 M298.966 301.586 C 295.009 302.772,294.448 304.769,294.604 317.125 C 294.787 331.540,294.475 331.250,309.787 331.250 C 325.085 331.250,324.609 331.730,324.609 316.276 C 324.609 300.831,325.163 301.405,310.156 301.293 C 304.678 301.252,299.642 301.384,298.966 301.586 M94.015 302.957 C 96.328 304.655,96.483 305.482,96.484 316.105 C 96.485 331.011,97.238 330.226,82.757 330.394 C 67.147 330.575,67.972 331.368,67.970 316.171 C 67.968 301.129,67.136 301.927,82.687 302.061 C 92.341 302.144,92.975 302.194,94.015 302.957 M264.560 302.836 C 266.769 304.283,266.902 305.053,266.884 316.292 C 266.866 327.815,266.737 328.429,264.049 329.785 C 262.003 330.817,130.018 330.848,127.845 329.816 C 125.103 328.515,125.003 328.040,125.001 316.289 C 125.000 304.361,125.081 303.975,127.858 302.710 C 130.305 301.595,262.853 301.717,264.560 302.836 M321.750 302.957 C 324.128 304.704,324.248 305.394,324.130 316.671 C 323.979 331.113,324.651 330.468,309.766 330.468 C 294.795 330.468,295.508 331.180,295.508 316.211 C 295.508 301.142,294.746 301.876,310.226 302.039 C 320.058 302.142,320.710 302.194,321.750 302.957 " stroke="none" fill="#6b6b6b" fill-rule="evenodd"></path><path id="path5" d="M289.856 38.551 C 289.872 38.973,291.792 42.078,291.795 41.687 C 291.799 41.076,290.694 38.760,290.274 38.501 C 290.037 38.355,289.849 38.377,289.856 38.551 M99.967 41.250 C 99.682 41.594,99.415 42.100,99.375 42.374 C 99.335 42.648,99.184 43.245,99.039 43.702 C 98.883 44.194,98.945 44.531,99.192 44.531 C 99.422 44.531,99.609 44.171,99.609 43.731 C 99.609 43.290,99.878 42.411,100.205 41.777 C 100.863 40.505,100.766 40.288,99.967 41.250 M291.993 45.313 C 292.217 45.676,292.183 126.163,291.940 170.266 L 291.833 189.555 290.778 191.164 C 287.534 196.108,279.189 204.113,275.109 206.194 C 272.868 207.338,269.158 210.604,266.901 213.420 C 264.733 216.125,262.988 217.184,260.683 217.194 C 258.640 217.203,254.465 219.756,249.731 223.892 C 247.694 225.672,245.119 227.625,244.009 228.232 C 242.900 228.838,241.465 229.834,240.820 230.444 C 240.176 231.054,239.033 231.861,238.281 232.237 C 237.529 232.613,236.051 233.643,234.997 234.527 C 233.943 235.410,232.412 236.484,231.596 236.914 C 228.739 238.418,223.438 242.220,223.438 242.764 C 223.438 243.758,224.349 243.943,230.204 244.141 L 235.995 244.336 237.492 245.941 C 239.389 247.977,239.573 249.431,239.387 260.938 C 239.175 274.070,239.700 273.633,224.150 273.633 C 208.930 273.633,209.199 273.838,209.149 262.230 C 209.110 253.074,208.843 252.658,204.728 255.325 C 201.749 257.256,201.464 257.455,199.858 258.730 C 196.614 261.307,192.638 260.249,187.237 255.371 C 182.910 251.463,182.422 252.142,182.422 262.064 C 182.422 273.912,182.387 273.938,166.705 273.755 C 151.865 273.581,152.581 274.309,152.438 259.250 C 152.299 244.671,152.615 244.142,161.451 244.141 C 168.083 244.140,169.710 242.796,165.496 240.801 C 164.351 240.259,162.207 238.743,160.731 237.433 C 159.255 236.123,157.430 234.793,156.675 234.478 C 155.920 234.162,154.241 232.978,152.944 231.845 C 151.647 230.712,149.531 229.120,148.242 228.308 C 146.953 227.495,145.322 226.331,144.618 225.722 C 143.914 225.113,142.612 224.244,141.725 223.791 C 140.837 223.339,138.813 221.836,137.227 220.453 C 133.886 217.539,133.134 217.188,130.239 217.187 C 127.784 217.187,124.888 215.048,124.412 212.883 C 124.037 211.176,121.416 208.904,116.436 205.970 C 109.300 201.766,102.734 195.486,102.734 192.864 C 102.734 192.211,102.271 190.698,101.705 189.501 C 99.957 185.806,99.112 169.999,100.048 158.502 L 100.487 153.111 99.506 151.653 C 98.966 150.851,98.461 149.981,98.383 149.720 C 98.301 149.443,98.035 149.372,97.747 149.551 C 97.368 149.787,97.493 150.310,98.279 151.785 C 99.275 153.653,99.293 153.804,98.871 156.836 C 98.326 160.752,98.317 176.228,98.857 179.883 C 99.079 181.387,99.403 183.848,99.576 185.352 C 99.750 186.856,100.272 188.922,100.737 189.942 C 101.202 190.962,101.691 192.368,101.823 193.066 C 101.956 193.765,102.293 194.790,102.571 195.346 C 103.189 196.577,110.370 203.715,111.949 204.668 C 112.574 205.046,114.547 206.203,116.334 207.240 C 120.469 209.641,122.935 211.814,123.704 213.736 C 124.765 216.389,126.927 217.857,130.027 218.032 C 132.880 218.193,133.504 218.546,138.068 222.577 C 139.133 223.517,140.834 224.708,141.849 225.222 C 142.864 225.736,143.816 226.354,143.965 226.594 C 144.114 226.835,145.664 227.956,147.411 229.085 C 149.157 230.214,151.465 231.928,152.539 232.894 C 153.613 233.860,155.283 235.009,156.250 235.448 C 157.217 235.886,159.304 237.401,160.888 238.815 C 162.472 240.228,164.098 241.489,164.501 241.617 C 165.321 241.877,165.505 242.937,164.746 243.026 C 164.478 243.058,162.499 243.104,160.350 243.129 C 155.780 243.182,154.432 243.754,152.544 246.438 L 151.367 248.113 151.234 257.417 C 150.987 274.648,151.074 274.734,168.292 274.535 C 180.072 274.398,180.392 274.327,182.324 271.407 L 183.395 269.789 183.281 262.994 C 183.128 253.937,183.676 252.818,186.594 256.226 C 187.784 257.616,189.570 258.801,193.838 261.031 C 195.939 262.128,197.919 261.692,200.544 259.554 C 203.264 257.338,207.059 255.113,207.699 255.359 C 208.082 255.506,208.204 257.070,208.205 261.858 C 208.210 274.189,208.732 274.605,224.219 274.605 C 240.444 274.605,240.377 274.674,240.165 257.830 L 240.039 247.792 239.000 246.223 C 237.402 243.810,235.722 243.186,230.988 243.245 C 225.147 243.319,224.847 242.909,228.671 240.082 C 230.325 238.858,232.066 237.705,232.539 237.520 C 233.012 237.334,234.624 236.199,236.122 234.998 C 237.621 233.796,239.070 232.813,239.344 232.813 C 239.618 232.813,240.501 232.218,241.307 231.491 C 242.114 230.764,243.715 229.615,244.865 228.938 C 246.016 228.260,248.653 226.242,250.725 224.453 C 252.797 222.665,255.059 220.911,255.751 220.557 C 256.443 220.203,257.654 219.476,258.442 218.941 C 259.455 218.254,260.403 217.968,261.676 217.967 C 264.068 217.965,265.546 217.006,267.826 213.975 C 269.857 211.275,272.740 208.750,275.215 207.502 C 278.662 205.764,286.765 198.435,289.912 194.210 L 292.909 190.185 293.102 169.213 C 293.208 157.679,293.282 148.066,293.266 147.852 C 293.250 147.637,293.175 124.785,293.099 97.070 C 292.965 48.186,292.904 44.922,292.119 44.922 C 291.916 44.922,291.860 45.098,291.993 45.313 M98.929 95.898 C 98.925 123.828,99.055 146.152,99.219 145.508 C 99.608 143.979,99.623 50.075,99.235 47.266 C 99.072 46.084,98.934 67.969,98.929 95.898 M70.970 186.503 C 66.762 188.004,66.238 189.554,66.087 200.959 C 65.864 217.765,66.180 218.086,82.756 217.894 L 93.223 217.773 94.846 216.699 C 97.896 214.679,98.047 213.993,98.047 202.160 C 98.047 185.942,98.036 185.931,81.836 185.957 C 74.951 185.968,72.065 186.113,70.970 186.503 M298.828 186.394 C 294.427 187.637,293.750 189.708,293.750 201.930 C 293.750 217.958,293.761 217.969,310.156 217.958 C 325.503 217.948,325.391 218.067,325.391 201.915 C 325.391 185.826,325.482 185.919,309.570 185.975 C 304.414 185.993,299.580 186.182,298.828 186.394 M94.406 188.109 C 97.083 190.062,97.310 191.249,97.184 202.609 C 97.020 217.346,97.598 216.797,82.260 216.797 C 66.674 216.797,67.183 217.298,67.196 201.968 C 67.209 186.516,66.641 187.057,82.687 187.206 C 92.703 187.299,93.366 187.350,94.406 188.109 M322.212 188.242 C 324.475 189.856,324.609 190.632,324.609 202.110 C 324.609 213.575,324.547 213.927,322.222 215.612 L 320.586 216.797 309.765 216.797 C 294.237 216.797,294.783 217.289,294.604 203.132 C 294.398 186.747,294.076 187.076,310.156 187.213 C 320.799 187.304,320.911 187.313,322.212 188.242 M100.090 243.338 C 95.105 244.149,94.727 245.247,94.727 258.915 C 94.727 275.342,93.791 274.414,110.352 274.414 C 126.770 274.414,126.172 274.997,126.172 258.984 C 126.172 242.956,126.192 242.976,110.352 243.035 C 105.625 243.052,101.007 243.189,100.090 243.338 M270.399 243.384 C 265.582 244.333,265.234 245.390,265.234 259.083 C 265.234 275.024,264.624 274.358,279.422 274.539 C 297.217 274.756,296.879 275.064,296.869 258.704 C 296.859 242.951,296.835 242.929,280.513 243.012 C 275.870 243.035,271.318 243.203,270.399 243.384 M122.537 244.905 C 125.175 246.513,125.195 246.621,125.195 258.772 C 125.195 274.584,125.872 273.925,109.828 273.749 C 94.734 273.583,95.313 274.170,95.313 259.018 C 95.313 243.461,94.628 244.140,110.312 244.142 C 120.503 244.143,121.378 244.198,122.537 244.905 M293.424 245.117 C 295.844 246.933,295.898 247.231,295.898 258.789 C 295.898 274.396,296.669 273.633,280.911 273.633 C 265.002 273.633,265.954 274.604,266.105 258.521 L 266.211 247.316 267.383 246.078 C 269.170 244.191,269.351 244.167,281.250 244.254 C 291.705 244.331,292.446 244.383,293.424 245.117 M70.703 300.828 C 66.644 302.438,65.935 304.934,66.088 317.070 C 66.280 332.194,66.091 332.015,81.946 332.025 C 98.313 332.035,98.047 332.297,98.047 316.170 C 98.047 303.807,97.833 303.032,93.867 301.024 C 92.407 300.284,72.498 300.116,70.703 300.828 M128.220 300.723 C 124.008 301.936,123.438 303.791,123.438 316.270 C 123.438 328.254,123.598 328.995,126.630 330.960 L 128.281 332.031 195.797 332.031 C 261.277 332.031,263.356 332.009,264.762 331.292 C 268.462 329.403,268.750 328.318,268.750 316.268 L 268.750 306.339 267.670 304.272 C 266.863 302.727,266.158 301.977,264.874 301.298 L 263.158 300.391 196.130 300.430 C 159.264 300.451,128.705 300.583,128.220 300.723 M297.852 301.116 C 294.037 302.890,293.746 303.987,293.769 316.491 C 293.790 328.029,293.868 328.418,296.618 330.629 L 298.118 331.836 309.313 331.937 C 325.909 332.086,325.147 332.808,325.310 316.766 C 325.440 303.962,325.382 303.648,322.564 301.693 L 320.967 300.586 310.191 300.488 C 300.379 300.398,299.274 300.454,297.852 301.116 M94.141 302.157 C 96.976 303.796,97.266 305.098,97.266 316.211 C 97.266 331.535,97.468 331.342,81.641 331.168 C 66.630 331.004,67.188 331.578,67.188 316.270 C 67.188 300.821,66.869 301.126,82.813 301.274 C 92.003 301.360,92.879 301.428,94.141 302.157 M264.452 302.170 C 267.507 303.964,267.578 304.283,267.578 316.089 C 267.578 325.840,267.522 326.704,266.793 328.133 C 265.164 331.325,271.740 331.042,196.478 331.157 L 129.480 331.259 127.751 330.375 C 124.430 328.679,124.431 328.681,124.291 317.062 C 124.136 304.226,124.421 303.157,128.381 301.739 C 131.247 300.713,262.679 301.128,264.452 302.170 M321.763 302.310 C 324.518 303.888,324.609 304.338,324.609 316.276 C 324.609 331.730,325.085 331.250,309.787 331.250 C 294.475 331.250,294.787 331.540,294.604 317.125 C 294.400 301.018,294.247 301.174,310.156 301.293 C 319.905 301.366,320.152 301.387,321.763 302.310 " stroke="none" fill="#4c4c4c" fill-rule="evenodd"></path></g></svg>